<svg id="icons" enable-background="new 0 0 64 64" height="512" viewBox="0 0 64 64" width="512" xmlns="http://www.w3.org/2000/svg"><g><g><path d="m60.998 24.996h-57.996c-.553 0-1-.447-1-1v-6.997c0-.374.208-.717.54-.888l28.998-15.002c.289-.15.631-.15.92 0l28.998 15.002c.332.171.54.514.54.888v6.997c0 .553-.447 1-1 1zm-56.996-2h55.996v-5.389l-27.998-14.484-27.998 14.484z"/></g><g><path d="m60.998 22.003h-57.996c-.553 0-1-.447-1-1s.447-1 1-1h57.996c.553 0 1 .447 1 1s-.447 1-1 1z"/></g><g><path d="m60.998 17.999h-57.996c-.553 0-1-.447-1-1s.447-1 1-1h57.996c.553 0 1 .447 1 1s-.447 1-1 1z"/></g><g><path d="m60.998 60.003h-57.996c-.553 0-1-.447-1-1v-3c0-.553.447-1 1-1h57.996c.553 0 1 .447 1 1v3c0 .553-.447 1-1 1zm-56.996-2h55.996v-1h-55.996z"/></g><g><path d="m62.999 63.003h-61.998c-.553 0-1-.447-1-1v-3c0-.553.447-1 1-1h61.998c.553 0 1 .447 1 1v3c0 .553-.447 1-1 1zm-60.998-2h59.998v-1h-59.998z"/></g><g><g><path d="m6 28.996c-1.654 0-3-1.346-3-3s1.346-3 3-3 3 1.346 3 3-1.346 3-3 3zm0-4c-.552 0-1 .448-1 1s.448 1 1 1 1-.448 1-1-.448-1-1-1z"/></g><g><path d="m16 28.996c-1.654 0-3-1.346-3-3s1.346-3 3-3 3 1.346 3 3-1.346 3-3 3zm0-4c-.552 0-1 .448-1 1s.448 1 1 1 1-.448 1-1-.448-1-1-1z"/></g><g><path d="m8 54.004c-.553 0-1-.447-1-1v-27.008c0-.553.447-1 1-1s1 .447 1 1v27.008c0 .553-.447 1-1 1z"/></g><g><path d="m14 54.004c-.553 0-1-.447-1-1v-27.008c0-.553.447-1 1-1s1 .447 1 1v27.008c0 .553-.447 1-1 1z"/></g><g><path d="m20 28.996c-1.654 0-3-1.346-3-3s1.346-3 3-3 3 1.346 3 3-1.346 3-3 3zm0-4c-.552 0-1 .448-1 1s.448 1 1 1 1-.448 1-1-.448-1-1-1z"/></g><g><path d="m30 28.996c-1.654 0-3-1.346-3-3s1.346-3 3-3 3 1.346 3 3-1.346 3-3 3zm0-4c-.552 0-1 .448-1 1s.448 1 1 1 1-.448 1-1-.448-1-1-1z"/></g><g><path d="m22 54.004c-.553 0-1-.447-1-1v-27.008c0-.553.447-1 1-1s1 .447 1 1v27.008c0 .553-.447 1-1 1z"/></g><g><path d="m28 54.004c-.553 0-1-.447-1-1v-27.008c0-.553.447-1 1-1s1 .447 1 1v27.008c0 .553-.447 1-1 1z"/></g><g><path d="m34 28.996c-1.654 0-3-1.346-3-3s1.346-3 3-3 3 1.346 3 3-1.346 3-3 3zm0-4c-.552 0-1 .448-1 1s.448 1 1 1 1-.448 1-1-.448-1-1-1z"/></g><g><path d="m44 28.996c-1.654 0-3-1.346-3-3s1.346-3 3-3 3 1.346 3 3-1.346 3-3 3zm0-4c-.552 0-1 .448-1 1s.448 1 1 1 1-.448 1-1-.448-1-1-1z"/></g><g><path d="m36 54.004c-.553 0-1-.447-1-1v-27.008c0-.553.447-1 1-1s1 .447 1 1v27.008c0 .553-.447 1-1 1z"/></g><g><path d="m42 54.004c-.553 0-1-.447-1-1v-27.008c0-.553.447-1 1-1s1 .447 1 1v27.008c0 .553-.447 1-1 1z"/></g><g><path d="m48 28.996c-1.654 0-3-1.346-3-3s1.346-3 3-3 3 1.346 3 3-1.346 3-3 3zm0-4c-.552 0-1 .448-1 1s.448 1 1 1 1-.448 1-1-.448-1-1-1z"/></g><g><path d="m58 28.996c-1.654 0-3-1.346-3-3s1.346-3 3-3 3 1.346 3 3-1.346 3-3 3zm0-4c-.552 0-1 .448-1 1s.448 1 1 1 1-.448 1-1-.448-1-1-1z"/></g><g><path d="m50 54.004c-.553 0-1-.447-1-1v-27.008c0-.553.447-1 1-1s1 .447 1 1v27.008c0 .553-.447 1-1 1z"/></g><g><path d="m56 54.004c-.553 0-1-.447-1-1v-27.008c0-.553.447-1 1-1s1 .447 1 1v27.008c0 .553-.447 1-1 1z"/></g></g><g><path d="m15.999 57.003h-9.998c-.553 0-1-.447-1-1v-2.999c0-.553.447-1 1-1h9.998c.553 0 1 .447 1 1v2.999c0 .553-.447 1-1 1zm-8.998-2h7.998v-.999h-7.998z"/></g><g><path d="m29.999 57.003h-9.998c-.553 0-1-.447-1-1v-2.999c0-.553.447-1 1-1h9.998c.553 0 1 .447 1 1v2.999c0 .553-.447 1-1 1zm-8.998-2h7.998v-.999h-7.998z"/></g><g><path d="m43.999 57.003h-9.998c-.553 0-1-.447-1-1v-2.999c0-.553.447-1 1-1h9.998c.553 0 1 .447 1 1v2.999c0 .553-.447 1-1 1zm-8.998-2h7.998v-.999h-7.998z"/></g><g><path d="m57.999 57.003h-9.998c-.553 0-1-.447-1-1v-2.999c0-.553.447-1 1-1h9.998c.553 0 1 .447 1 1v2.999c0 .553-.447 1-1 1zm-8.998-2h7.998v-.999h-7.998z"/></g><g><path d="m11 49.996c-.553 0-1-.447-1-1v-21c0-.553.447-1 1-1s1 .447 1 1v21c0 .553-.447 1-1 1z"/></g><g><path d="m25 49.996c-.553 0-1-.447-1-1v-21c0-.553.447-1 1-1s1 .447 1 1v21c0 .553-.447 1-1 1z"/></g><g><path d="m39 49.996c-.553 0-1-.447-1-1v-21c0-.553.447-1 1-1s1 .447 1 1v21c0 .553-.447 1-1 1z"/></g><g><path d="m53 49.996c-.553 0-1-.447-1-1v-21c0-.553.447-1 1-1s1 .447 1 1v21c0 .553-.447 1-1 1z"/></g><g><g><path d="m28.999 15.004c-.553 0-1-.447-1-1v-6.002c0-.553.447-1 1-1s1 .447 1 1v6.002c0 .553-.447 1-1 1z"/></g><g><path d="m32.001 13.004c-.305 0-.604-.138-.801-.4l-3.001-4.002c-.332-.441-.242-1.068.2-1.399.441-.332 1.068-.243 1.399.2l3.001 4.002c.332.441.242 1.068-.2 1.399-.179.134-.389.2-.598.2z"/></g><g><path d="m35.001 15.004c-.553 0-1-.447-1-1v-6.002c0-.553.447-1 1-1s1 .447 1 1v6.002c0 .553-.447 1-1 1z"/></g><g><path d="m31.999 13.004c-.209 0-.419-.065-.599-.2-.442-.331-.532-.958-.2-1.399l3.001-4.002c.331-.442.959-.53 1.399-.2.442.331.532.958.2 1.399l-3 4.002c-.196.262-.496.4-.801.4z"/></g></g></g></svg>